<svg xmlns="http://www.w3.org/2000/svg" xml:space="preserve" id="Camada_1" x="0" y="0" style="enable-background:new 0 0 32 32" version="1.1" viewBox="0 0 32 32"><style>.st0{fill:#ffbf00}</style><path d="M32.04 21.95c-.19.34-.33.73-.58 1.02-.38.44-.93.55-1.51.55H2.32c-1.42 0-1.85-.28-2.37-1.57v-.63c.19-.34.33-.73.58-1.02.38-.44.93-.55 1.51-.55H29.67c1.42 0 1.85.28 2.37 1.57v.63zM-.04 15.68c.06-.15.1-.31.18-.46.33-.69.89-1.07 1.65-1.1.79-.03 1.58-.01 2.38 0 .09 0 .21.05.27.11 1.2 1.19 2.39 2.39 3.64 3.64H2c-1.06 0-1.68-.46-2-1.49 0-.02-.03-.05-.04-.07v-.63zM32.04 16.31c-.06.15-.1.31-.18.46-.33.69-.89 1.09-1.65 1.09-2.05.02-4.11.01-6.16.01-.02 0-.03-.02-.08-.04.06-.07.12-.14.18-.2 1.11-1.11 2.21-2.21 3.31-3.32.14-.15.29-.2.49-.2.68.01 1.36 0 2.03 0 1.06 0 1.68.46 2 1.49.01.03.03.05.05.08.01.21.01.42.01.63zM30.11 12.22H1.89c.05-.42.07-.84.15-1.24.63-3.41 2.42-6.04 5.39-7.84 2-1.21 4.19-1.83 6.5-2.07 2.5-.25 4.96-.09 7.37.63 2.85.85 5.23 2.38 6.92 4.87 1.02 1.51 1.61 3.19 1.81 5.01.03.21.05.42.08.64zM14.12 5.65a.959.959 0 0 0-.95-.93c-.51.01-.93.44-.93.95.01.51.44.93.95.93.51-.01.93-.44.93-.95zm5.64 0c0-.51-.43-.93-.95-.93-.51 0-.93.43-.93.95 0 .51.43.93.95.93.51-.01.93-.44.93-.95zm-9.4 2.81a.943.943 0 0 0-.95-.92c-.51.01-.94.44-.93.95.01.51.44.93.95.92.52-.01.94-.44.93-.95zm6.58.04c.01-.51-.4-.95-.91-.96-.51-.01-.95.4-.96.91-.01.51.4.95.91.96.5.02.94-.4.96-.91zm5.63-.96c-.51.01-.93.44-.93.95.01.51.44.93.95.93.51-.01.93-.44.93-.95a.945.945 0 0 0-.95-.93zM7.15 14.13h6.44l-3.22 3.22-3.22-3.22zM21.58 17.39c-1.04-1.05-2.13-2.14-3.24-3.24h6.49c-1.05 1.04-2.15 2.13-3.25 3.24zM19.24 17.86h-6.5c1.09-1.09 2.19-2.18 3.25-3.25l3.25 3.25zM30.06 25.41c-.21 1.6-.89 2.89-2.14 3.87-1.26.99-2.74 1.44-4.3 1.63-.68.08-1.37.13-2.06.13-3.71.01-7.41.01-11.12.01-1.59 0-3.15-.17-4.63-.77-2.06-.83-3.41-2.27-3.82-4.51l-.03-.22v-.13c9.36-.01 18.71-.01 28.1-.01z" class="st0"/></svg>